<svg width="23" height="24" viewBox="0 0 23 24" fill="none" xmlns="http://www.w3.org/2000/svg">
<path d="M5.10893 1.70117C1.77376 1.70117 0.747559 2.72738 0.747559 6.06254C0.747559 9.39771 1.77376 10.4239 5.10893 10.4239C8.44409 10.4239 9.4703 9.39771 9.4703 6.06254C9.4703 2.72738 8.44409 1.70117 5.10893 1.70117Z" stroke="#4B4B4B" stroke-width="1.5" stroke-linecap="round" stroke-linejoin="round"/>
<path d="M5.10893 13.913C1.77376 13.913 0.747559 14.9392 0.747559 18.2744C0.747559 21.6095 1.77376 22.6358 5.10893 22.6358C8.44409 22.6358 9.4703 21.6095 9.4703 18.2744C9.4703 14.9392 8.44409 13.913 5.10893 13.913Z" stroke="#4B4B4B" stroke-width="1.5" stroke-linecap="round" stroke-linejoin="round"/>
<path d="M17.3208 13.913C13.9856 13.913 12.9594 14.9392 12.9594 18.2744C12.9594 21.6095 13.9856 22.6358 17.3208 22.6358C20.6559 22.6358 21.6821 21.6095 21.6821 18.2744C21.6821 14.9392 20.6559 13.913 17.3208 13.913Z" stroke="#4B4B4B" stroke-width="1.5" stroke-linecap="round" stroke-linejoin="round"/>
<path d="M17.3208 1.70117C13.9856 1.70117 12.9594 2.72738 12.9594 6.06254C12.9594 9.39771 13.9856 10.4239 17.3208 10.4239C20.6559 10.4239 21.6821 9.39771 21.6821 6.06254C21.6821 2.72738 20.6559 1.70117 17.3208 1.70117Z" stroke="#4B4B4B" stroke-width="1.5" stroke-linecap="round" stroke-linejoin="round"/>
</svg>
