<svg width="29" height="29" viewBox="0 0 29 29" fill="none" xmlns="http://www.w3.org/2000/svg">
<path d="M4.91064 6.02724L11.8888 6.02724M11.8888 6.02724C11.8888 7.31189 12.9303 8.3533 14.2149 8.3533C15.4996 8.3533 16.541 7.31189 16.541 6.02724M11.8888 6.02724C11.8888 4.74259 12.9303 3.70117 14.2149 3.70117C15.4996 3.70117 16.541 4.74259 16.541 6.02724M16.541 6.02724L23.5192 6.02724M4.91064 14.1685L18.867 14.1685M18.867 14.1685C18.867 15.4531 19.9084 16.4945 21.1931 16.4945C22.4777 16.4945 23.5192 15.4531 23.5192 14.1685C23.5192 12.8838 22.4777 11.8424 21.1931 11.8424C19.9084 11.8424 18.867 12.8838 18.867 14.1685ZM9.56277 22.3097L23.5192 22.3097M9.56277 22.3097C9.56277 21.025 8.52136 19.9836 7.23671 19.9836C5.95206 19.9836 4.91065 21.025 4.91064 22.3097C4.91064 23.5943 5.95206 24.6357 7.23671 24.6357C8.52136 24.6357 9.56277 23.5943 9.56277 22.3097Z" stroke="#4B4B4B" stroke-width="1.5" stroke-linecap="round"/>
</svg>
