<svg width="28" height="28" viewBox="0 0 28 28" fill="none" xmlns="http://www.w3.org/2000/svg">
<path d="M3.49634 8.158L6.99271 4.66162H10.4891C10.4891 5.12077 10.5795 5.57543 10.7552 5.99963C10.9309 6.42383 11.1885 6.80926 11.5132 7.13393C11.8378 7.4586 12.2233 7.71614 12.6475 7.89185C13.0717 8.06756 13.5263 8.158 13.9855 8.158C14.4446 8.158 14.8993 8.06756 15.3235 7.89185C15.7477 7.71614 16.1331 7.4586 16.4578 7.13393C16.7824 6.80926 17.04 6.42383 17.2157 5.99963C17.3914 5.57543 17.4818 5.12077 17.4818 4.66162H20.9782L24.4746 8.158L23.9833 13.0707C23.9408 13.4959 23.4701 13.7323 23.1037 13.5124L20.9782 12.2371V20.978C20.9782 22.2654 19.9346 23.309 18.6473 23.309H9.32363C8.0363 23.309 6.99271 22.2654 6.99271 20.978V12.2371L4.86725 13.5124C4.50078 13.7323 4.03013 13.4959 3.98761 13.0707L3.49634 8.158Z" stroke="white" stroke-width="1.5" stroke-linecap="round" stroke-linejoin="round"/>
</svg>
