<svg width="22" height="16" viewBox="0 0 22 16" fill="none" xmlns="http://www.w3.org/2000/svg">
<path d="M20.31 5H13.0176C11.351 5 10 6.34315 10 8C10 9.65685 11.351 11 13.0176 11H20.31M13 8V8.00999M2.55556 1.72222C3.08333 1.36111 6.77778 1 11 1C15.2222 1 18.9167 1.36111 19.4444 1.72222C19.7556 1.93511 20.0667 3.40107 20.2697 4.75005C20.3207 5.08894 20.3649 5.45201 20.4005 5.83339C20.4637 6.50901 20.5 7.2421 20.5 8.00005C20.5 9.18585 20.4111 10.3108 20.2697 11.2501C20.0667 12.599 19.7556 14.0649 19.4444 14.2778C18.9167 14.6389 15.2222 15 11 15C6.77778 15 3.08333 14.6389 2.55556 14.2778C2.02778 13.9167 1.5 10.8889 1.5 8.00005C1.5 7.2421 1.53633 6.50901 1.59946 5.83339C1.77694 3.9339 2.16625 1.98859 2.55556 1.72222Z" stroke="#4B4B4B" stroke-width="1.5" stroke-linecap="round" stroke-linejoin="round"/>
</svg>
